<?xml version="1.0" encoding="UTF-8"?>
<svg xmlns="http://www.w3.org/2000/svg" xmlns:xlink="http://www.w3.org/1999/xlink" width="192px" height="192px" viewBox="0 0 192 192" version="1.1">
<g id="surface1">
<path style=" stroke:none;fill-rule:nonzero;fill:rgb(93.333334%,78.431374%,18.82353%);fill-opacity:1;" d="M 71.402344 30.773438 L 65.109375 31.429688 C 62.023438 31.253906 59.375 29.808594 57.167969 27.089844 L 55.84375 25.25 C 54.445312 21.832031 54.113281 18.71875 54.847656 15.914062 C 55.363281 14.421875 56.136719 13.0625 57.167969 11.835938 C 59.375 9.207031 62.023438 7.890625 65.109375 7.890625 L 149.414062 7.890625 C 152.503906 7.890625 155.152344 9.207031 157.359375 11.835938 C 159.566406 14.464844 160.667969 17.621094 160.667969 21.304688 C 160.667969 24.984375 159.566406 28.140625 157.359375 30.773438 C 155.152344 33.402344 152.503906 34.542969 149.414062 34.191406 L 142.351562 33.402344 L 137.277344 32.746094 L 135.84375 32.613281 L 125.910156 31.296875 L 119.179688 30.640625 L 95.34375 29.589844 L 88.726562 29.71875 L 77.800781 30.246094 L 71.402344 30.773438 M 24.394531 80.875 L 23.621094 81.007812 C 20.605469 81.535156 17.992188 81.097656 15.785156 79.691406 C 13.433594 78.113281 12.257812 76.011719 12.257812 73.378906 C 12.257812 72.066406 12.550781 70.839844 13.140625 69.699219 C 13.726562 68.472656 14.609375 67.375 15.785156 66.410156 C 18.066406 64.480469 20.753906 63.519531 23.84375 63.519531 L 50.105469 63.386719 C 51.648438 63.386719 52.9375 64 53.964844 65.226562 C 54.921875 66.367188 55.363281 67.8125 55.289062 69.566406 C 55.289062 71.320312 54.738281 72.855469 53.636719 74.167969 C 52.53125 75.574219 51.171875 76.40625 49.550781 76.667969 L 24.394531 80.875 M 142.023438 103.101562 L 149.414062 103.101562 C 152.503906 103.101562 155.152344 104.417969 157.359375 107.046875 C 159.566406 109.675781 160.667969 112.832031 160.667969 116.515625 C 160.667969 120.195312 159.566406 123.351562 157.359375 125.984375 C 155.152344 128.613281 152.503906 129.753906 149.414062 129.402344 L 145.109375 128.875 L 138.933594 128.21875 L 137.277344 127.957031 L 132.089844 127.296875 L 86.847656 125.0625 L 81.550781 125.195312 L 65.109375 126.640625 C 62.023438 126.464844 59.375 125.019531 57.167969 122.300781 L 55.84375 120.460938 C 54.445312 117.042969 54.113281 113.929688 54.847656 111.125 C 55.363281 109.632812 56.136719 108.273438 57.167969 107.046875 C 59.375 104.417969 62.023438 103.101562 65.109375 103.101562 L 142.023438 103.101562 "/>
<path style=" stroke:none;fill-rule:nonzero;fill:rgb(62.352943%,53.333336%,16.470589%);fill-opacity:1;" d="M 142.351562 33.402344 L 149.414062 34.191406 C 152.503906 34.542969 155.152344 33.402344 157.359375 30.773438 C 159.566406 28.140625 160.667969 24.984375 160.667969 21.304688 C 160.667969 17.621094 159.566406 14.464844 157.359375 11.835938 C 155.152344 9.207031 152.503906 7.890625 149.414062 7.890625 L 65.109375 7.890625 C 62.023438 7.890625 59.375 9.207031 57.167969 11.835938 C 56.136719 13.0625 55.363281 14.421875 54.847656 15.914062 C 54.113281 18.71875 54.445312 21.832031 55.84375 25.25 L 57.167969 27.089844 C 59.375 29.808594 62.023438 31.253906 65.109375 31.429688 L 71.402344 30.773438 L 76.367188 53.128906 L 51.980469 54.050781 C 41.019531 39.757812 29.324219 34.453125 16.890625 38.136719 C 13.140625 39.277344 10.417969 41.074219 8.726562 43.527344 C 6.738281 46.507812 6.1875 50.367188 7.070312 55.101562 L 8.726562 61.019531 C 9.828125 64.085938 11.300781 66.980469 13.140625 69.699219 C 12.550781 70.839844 12.257812 72.066406 12.257812 73.378906 C 12.257812 76.011719 13.433594 78.113281 15.785156 79.691406 C 17.992188 81.097656 20.605469 81.535156 23.621094 81.007812 L 24.394531 80.875 L 32.558594 89.820312 L 34.546875 92.1875 C 42.859375 102.53125 50.03125 114.191406 56.0625 127.167969 L 60.144531 134.925781 C 58.011719 134.925781 55.988281 135.628906 54.078125 137.03125 C 50.914062 139.222656 48.855469 142.421875 47.898438 146.628906 L 47.566406 148.734375 L 47.898438 148.734375 L 49.109375 150.179688 L 44.257812 152.152344 L 43.59375 150.96875 C 43.226562 150.09375 43.117188 149.128906 43.261719 148.078125 L 43.59375 145.445312 L 43.703125 145.316406 C 44.953125 139.703125 47.675781 135.453125 51.871094 132.558594 L 53.195312 131.636719 L 52.199219 129.796875 C 46.390625 117.261719 39.472656 105.996094 31.457031 96 L 31.34375 95.867188 L 29.46875 93.632812 L 22.960938 86.398438 C 19.429688 86.75 16.339844 86.09375 13.691406 84.425781 L 13.691406 84.296875 C 9.644531 81.578125 7.695312 77.941406 7.84375 73.378906 C 7.84375 72.417969 7.953125 71.453125 8.171875 70.488281 C 6.777344 68.121094 5.597656 65.664062 4.640625 63.125 L 4.640625 62.992188 L 2.875 56.417969 L 2.765625 56.285156 C 1.515625 49.710938 2.363281 44.363281 5.304688 40.242188 C 7.4375 36.910156 10.933594 34.5 15.785156 33.007812 L 15.898438 33.007812 C 29.285156 28.800781 41.9375 34.015625 53.855469 48.65625 L 70.628906 48 L 68.089844 36.425781 L 65.550781 36.691406 L 64.890625 36.691406 C 60.625 36.425781 57.019531 34.453125 54.078125 30.773438 L 54.078125 30.902344 L 52.3125 28.40625 L 51.871094 27.617188 C 49.882812 22.707031 49.480469 18.28125 50.65625 14.335938 L 50.765625 13.941406 C 51.503906 11.835938 52.605469 9.90625 54.078125 8.152344 C 57.09375 4.472656 60.769531 2.628906 65.109375 2.628906 L 149.414062 2.628906 C 153.753906 2.628906 157.46875 4.472656 160.558594 8.152344 C 163.574219 11.746094 165.082031 16.132812 165.082031 21.304688 C 165.082031 26.476562 163.574219 30.902344 160.558594 34.585938 C 157.324219 38.355469 153.460938 39.976562 148.972656 39.453125 L 145.550781 39.058594 L 143.125 50.105469 L 138.601562 49.839844 L 142.351562 33.402344 M 108.144531 171.878906 C 102.1875 170.652344 96.15625 168.984375 90.050781 166.882812 C 85.121094 165.214844 80.558594 162.9375 76.367188 160.042969 L 74.710938 158.859375 L 74.601562 158.859375 L 74.269531 161.492188 L 70.519531 157.152344 L 72.503906 156.625 L 72.835938 156.757812 L 73.386719 154.785156 L 73.828125 151.757812 C 79.050781 156.230469 84.863281 159.5625 91.261719 161.753906 L 108.144531 166.488281 L 108.144531 171.878906 "/>
<path style=" stroke:none;fill-rule:nonzero;fill:rgb(69.803923%,70.588237%,76.078433%);fill-opacity:1;" d="M 144.558594 72.066406 C 145.296875 71.1875 145.664062 70.09375 145.664062 68.777344 C 145.664062 67.464844 145.296875 66.324219 144.558594 65.359375 C 143.75 64.480469 142.792969 64.042969 141.691406 64.042969 C 140.585938 64.042969 139.667969 64.480469 138.933594 65.359375 C 138.121094 66.324219 137.71875 67.464844 137.71875 68.777344 C 137.71875 70.09375 138.121094 71.1875 138.933594 72.066406 C 139.667969 73.03125 140.585938 73.511719 141.691406 73.511719 C 142.792969 73.511719 143.75 73.03125 144.558594 72.066406 M 137.496094 54.96875 L 156.144531 56.679688 L 157.800781 56.941406 C 161.625 57.554688 164.496094 60.097656 166.40625 64.570312 L 166.40625 64.703125 L 167.730469 69.171875 C 169.863281 76.535156 171.445312 83.859375 172.476562 91.132812 L 173.691406 104.546875 C 174.132812 112.875 173.835938 121.207031 172.808594 129.535156 C 171.777344 137.425781 170.085938 145.226562 167.730469 152.941406 L 166.40625 157.152344 L 166.296875 157.414062 C 164.238281 161.710938 161.367188 164.425781 157.691406 165.566406 L 156.585938 165.832031 L 153.496094 166.621094 L 153.496094 166.75 L 148.972656 167.539062 L 148.972656 166.355469 C 148.972656 160.394531 147.171875 155.265625 143.566406 150.96875 C 140.035156 146.761719 135.730469 144.65625 130.65625 144.65625 L 132.089844 127.296875 L 137.277344 127.957031 L 138.933594 128.21875 C 138.121094 129.007812 137.71875 130.105469 137.71875 131.507812 C 137.71875 132.734375 138.121094 133.832031 138.933594 134.792969 C 139.667969 135.757812 140.585938 136.242188 141.691406 136.242188 C 142.792969 136.242188 143.75 135.757812 144.558594 134.792969 C 145.296875 133.832031 145.664062 132.734375 145.664062 131.507812 L 145.109375 128.875 L 149.414062 129.402344 C 152.503906 129.753906 155.152344 128.613281 157.359375 125.984375 C 159.566406 123.351562 160.667969 120.195312 160.667969 116.515625 C 160.667969 112.832031 159.566406 109.675781 157.359375 107.046875 C 155.152344 104.417969 152.503906 103.101562 149.414062 103.101562 L 142.023438 103.101562 L 134.296875 68.910156 L 137.496094 54.96875 "/>
<path style=" stroke:none;fill-rule:nonzero;fill:rgb(58.823532%,59.607846%,65.098041%);fill-opacity:1;" d="M 144.558594 72.066406 C 143.75 73.03125 142.792969 73.511719 141.691406 73.511719 C 140.585938 73.511719 139.667969 73.03125 138.933594 72.066406 C 138.121094 71.1875 137.71875 70.09375 137.71875 68.777344 C 137.71875 67.464844 138.121094 66.324219 138.933594 65.359375 C 139.667969 64.480469 140.585938 64.042969 141.691406 64.042969 C 142.792969 64.042969 143.75 64.480469 144.558594 65.359375 C 145.296875 66.324219 145.664062 67.464844 145.664062 68.777344 C 145.664062 70.09375 145.296875 71.1875 144.558594 72.066406 M 145.109375 128.875 L 145.664062 131.507812 C 145.664062 132.734375 145.296875 133.832031 144.558594 134.792969 C 143.75 135.757812 142.792969 136.242188 141.691406 136.242188 C 140.585938 136.242188 139.667969 135.757812 138.933594 134.792969 C 138.121094 133.832031 137.71875 132.734375 137.71875 131.507812 C 137.71875 130.105469 138.121094 129.007812 138.933594 128.21875 L 145.109375 128.875 "/>
<path style=" stroke:none;fill-rule:nonzero;fill:rgb(54.11765%,54.509807%,59.607846%);fill-opacity:1;" d="M 138.601562 49.839844 L 143.125 50.105469 L 144.449219 50.234375 L 156.585938 51.417969 L 156.808594 51.550781 L 158.351562 51.8125 L 158.464844 51.8125 C 162.214844 52.339844 165.304688 54.269531 167.730469 57.601562 L 170.378906 62.203125 L 170.601562 62.859375 L 170.710938 63.386719 L 172.257812 68.777344 L 174.132812 76.140625 L 174.132812 91.132812 C 174.207031 88.242188 175.089844 85.832031 176.78125 83.902344 L 176.890625 83.769531 C 178.730469 81.753906 180.824219 80.746094 183.179688 80.746094 C 185.679688 80.746094 187.816406 81.796875 189.582031 83.902344 C 191.273438 85.917969 192.117188 88.417969 192.117188 91.398438 L 192.117188 99.023438 C 194.105469 102.53125 195.097656 106.300781 195.097656 110.335938 C 195.097656 114.453125 194.105469 118.3125 192.117188 121.90625 L 192.117188 129.664062 C 192.117188 132.648438 191.273438 135.1875 189.582031 137.292969 L 189.691406 137.03125 C 187.851562 139.308594 185.679688 140.449219 183.179688 140.449219 C 180.753906 140.535156 178.621094 139.484375 176.78125 137.292969 C 175.089844 135.277344 174.207031 132.820312 174.132812 129.929688 L 174.132812 146.367188 L 171.703125 155.179688 L 170.820312 158.070312 C 170.746094 158.949219 170.378906 159.867188 169.71875 160.832031 L 167.730469 164.121094 C 165.378906 167.453125 162.398438 169.644531 158.792969 170.695312 L 158.574219 170.695312 L 157.46875 170.957031 L 157.46875 171.089844 L 152.945312 172.011719 L 153.496094 166.75 L 153.496094 166.621094 L 156.585938 165.832031 L 157.691406 165.566406 C 161.367188 164.425781 164.238281 161.710938 166.296875 157.414062 L 166.40625 157.152344 L 167.730469 152.941406 C 170.085938 145.226562 171.777344 137.425781 172.808594 129.535156 L 173.359375 129.535156 L 174.132812 129.269531 L 174.132812 129.402344 L 174.90625 129.140625 L 178.546875 127.691406 L 178.546875 129.664062 C 178.546875 131.15625 178.988281 132.425781 179.871094 133.480469 C 180.824219 134.621094 181.929688 135.1875 183.179688 135.1875 C 184.429688 135.1875 185.496094 134.621094 186.378906 133.480469 C 187.261719 132.425781 187.703125 131.15625 187.703125 129.664062 L 187.703125 120.066406 C 189.691406 117.085938 190.683594 113.839844 190.683594 110.335938 C 190.683594 106.914062 189.691406 103.714844 187.703125 100.734375 L 187.703125 91.398438 C 187.703125 89.90625 187.261719 88.636719 186.378906 87.582031 C 185.496094 86.53125 184.429688 86.003906 183.179688 86.003906 C 181.929688 86.003906 180.824219 86.53125 179.871094 87.582031 C 178.988281 88.636719 178.546875 89.90625 178.546875 91.398438 L 178.546875 93.105469 L 174.90625 91.660156 L 174.132812 91.660156 L 174.132812 91.398438 L 173.359375 91.132812 L 172.808594 91.003906 L 172.476562 91.132812 C 171.445312 83.859375 169.863281 76.535156 167.730469 69.171875 L 166.40625 64.703125 L 166.40625 64.570312 C 164.496094 60.097656 161.625 57.554688 157.800781 56.941406 L 156.144531 56.679688 L 137.496094 54.96875 L 138.601562 49.839844 "/>
<path style=" stroke:none;fill-rule:nonzero;fill:rgb(81.568629%,82.745099%,89.803922%);fill-opacity:1;" d="M 138.601562 49.839844 L 137.496094 54.96875 L 134.296875 68.910156 L 142.023438 103.101562 L 135.402344 103.101562 L 131.316406 85.085938 L 130.988281 83.507812 L 127.898438 97.445312 L 127.234375 100.472656 L 126.574219 103.101562 L 120.0625 103.101562 L 120.726562 99.945312 L 121.386719 96.921875 L 127.675781 68.910156 L 126.242188 62.335938 L 123.703125 51.15625 L 119.179688 30.640625 L 125.910156 31.296875 L 130.988281 54.179688 L 135.84375 32.613281 L 137.277344 32.746094 L 142.351562 33.402344 L 138.601562 49.839844 M 71.402344 30.773438 L 77.800781 30.246094 L 83.207031 54.179688 L 88.726562 29.71875 L 95.34375 29.589844 L 90.160156 52.601562 L 87.730469 63.78125 L 86.519531 68.910156 L 92.257812 94.554688 L 92.917969 97.445312 L 94.242188 103.101562 L 87.621094 103.101562 L 86.1875 96.921875 L 85.636719 94.027344 L 83.207031 83.507812 L 80.890625 93.632812 L 80.339844 96.394531 L 78.792969 103.101562 L 72.285156 103.101562 L 73.9375 95.738281 L 74.492188 93.105469 L 79.898438 68.910156 L 76.367188 53.128906 L 71.402344 30.773438 M 178.546875 93.105469 L 178.546875 91.398438 C 178.546875 89.90625 178.988281 88.636719 179.871094 87.582031 C 180.824219 86.53125 181.929688 86.003906 183.179688 86.003906 C 184.429688 86.003906 185.496094 86.53125 186.378906 87.582031 C 187.261719 88.636719 187.703125 89.90625 187.703125 91.398438 L 187.703125 129.664062 C 187.703125 131.15625 187.261719 132.425781 186.378906 133.480469 C 185.496094 134.621094 184.429688 135.1875 183.179688 135.1875 C 181.929688 135.1875 180.824219 134.621094 179.871094 133.480469 C 178.988281 132.425781 178.546875 131.15625 178.546875 129.664062 L 178.546875 93.105469 M 180.640625 91.398438 L 180.640625 110.730469 L 185.9375 110.730469 L 185.9375 91.398438 L 185.167969 89.292969 C 184.652344 88.679688 184.027344 88.417969 183.289062 88.503906 C 182.628906 88.503906 182.003906 88.8125 181.414062 89.425781 C 180.972656 89.949219 180.714844 90.609375 180.640625 91.398438 "/>
<path style=" stroke:none;fill-rule:nonzero;fill:rgb(69.411767%,70.588237%,78.823531%);fill-opacity:1;" d="M 77.800781 30.246094 L 88.726562 29.71875 L 83.207031 54.179688 L 77.800781 30.246094 M 95.34375 29.589844 L 119.179688 30.640625 L 123.703125 51.15625 C 123.1875 51.242188 122.675781 51.464844 122.160156 51.8125 L 119.511719 53.261719 C 115.097656 55.363281 109.835938 56.242188 103.730469 55.890625 C 98.582031 55.628906 94.058594 54.53125 90.160156 52.601562 L 95.34375 29.589844 M 125.910156 31.296875 L 135.84375 32.613281 L 130.988281 54.179688 L 125.910156 31.296875 M 98.765625 34.847656 L 95.566406 49.183594 L 103.953125 50.628906 C 109.027344 50.894531 113.441406 50.28125 117.195312 48.789062 L 117.855469 48.394531 L 118.078125 48.394531 L 118.519531 48.132812 L 115.757812 35.636719 L 98.765625 34.847656 "/>
<path style=" stroke:none;fill-rule:nonzero;fill:rgb(96.078432%,83.92157%,34.117648%);fill-opacity:1;" d="M 49.109375 150.179688 L 47.898438 148.734375 L 47.566406 148.734375 L 47.898438 146.628906 C 48.855469 142.421875 50.914062 139.222656 54.078125 137.03125 C 55.988281 135.628906 58.011719 134.925781 60.144531 134.925781 L 56.0625 127.167969 C 50.03125 114.191406 42.859375 102.53125 34.546875 92.1875 L 73.9375 95.738281 L 72.285156 103.101562 L 65.109375 103.101562 C 62.023438 103.101562 59.375 104.417969 57.167969 107.046875 C 56.136719 108.273438 55.363281 109.632812 54.847656 111.125 C 54.113281 113.929688 54.445312 117.042969 55.84375 120.460938 L 57.167969 122.300781 C 59.375 125.019531 62.023438 126.464844 65.109375 126.640625 L 81.550781 125.195312 L 71.289062 141.371094 L 72.0625 142.683594 L 73.71875 148.339844 L 86.847656 125.0625 L 132.089844 127.296875 L 130.65625 144.65625 C 125.652344 144.65625 121.351562 146.761719 117.746094 150.96875 C 114.214844 155.265625 112.449219 160.394531 112.449219 166.355469 L 112.449219 167.277344 L 108.144531 166.488281 L 91.261719 161.753906 C 84.863281 159.5625 79.050781 156.230469 73.828125 151.757812 L 73.386719 154.785156 L 72.835938 156.757812 L 72.503906 156.625 L 70.519531 157.152344 L 68.753906 157.152344 L 63.566406 156.625 L 59.59375 155.441406 L 55.179688 153.863281 L 50.765625 151.496094 L 49.109375 150.179688 M 32.558594 89.820312 L 24.394531 80.875 L 49.550781 76.667969 C 51.171875 76.40625 52.53125 75.574219 53.636719 74.167969 C 54.738281 72.855469 55.289062 71.320312 55.289062 69.566406 C 55.363281 67.8125 54.921875 66.367188 53.964844 65.226562 C 52.9375 64 51.648438 63.386719 50.105469 63.386719 L 23.84375 63.519531 C 20.753906 63.519531 18.066406 64.480469 15.785156 66.410156 C 14.609375 67.375 13.726562 68.472656 13.140625 69.699219 C 11.300781 66.980469 9.828125 64.085938 8.726562 61.019531 L 7.070312 55.101562 C 6.1875 50.367188 6.738281 46.507812 8.726562 43.527344 C 10.417969 41.074219 13.140625 39.277344 16.890625 38.136719 C 29.324219 34.453125 41.019531 39.757812 51.980469 54.050781 L 76.367188 53.128906 L 79.898438 68.910156 L 74.492188 93.105469 L 32.558594 89.820312 M 92.257812 94.554688 L 86.519531 68.910156 L 87.730469 63.78125 C 92.21875 65.796875 97.40625 66.980469 103.289062 67.332031 C 111.015625 67.769531 117.636719 66.628906 123.152344 63.914062 L 126.242188 62.335938 L 127.675781 68.910156 L 121.386719 96.921875 L 92.257812 94.554688 M 127.234375 100.472656 L 132.3125 100.867188 L 132.421875 103.101562 L 126.574219 103.101562 L 127.234375 100.472656 M 132.199219 97.710938 L 127.898438 97.445312 L 130.988281 83.507812 L 131.316406 85.085938 L 132.199219 97.710938 M 120.0625 103.101562 L 99.097656 103.101562 L 101.746094 98.234375 L 120.726562 99.945312 L 120.0625 103.101562 M 95.785156 103.101562 L 94.242188 103.101562 L 92.917969 97.445312 L 98.988281 97.972656 L 95.785156 103.101562 M 87.621094 103.101562 L 78.792969 103.101562 L 80.339844 96.394531 L 86.1875 96.921875 L 87.621094 103.101562 M 80.890625 93.632812 L 83.207031 83.507812 L 85.636719 94.027344 L 80.890625 93.632812 M 85.082031 142.554688 C 84.054688 142.554688 83.132812 143.035156 82.324219 144 C 81.589844 144.789062 81.222656 145.796875 81.222656 147.023438 L 81.109375 147.289062 C 81.109375 148.515625 81.441406 149.566406 82.105469 150.445312 L 82.324219 150.707031 C 83.132812 151.671875 84.054688 152.152344 85.082031 152.152344 C 86.113281 152.152344 86.996094 151.714844 87.730469 150.839844 L 87.953125 150.707031 C 88.6875 149.742188 89.054688 148.601562 89.054688 147.289062 C 89.054688 145.972656 88.6875 144.875 87.953125 144 C 87.21875 143.035156 86.261719 142.554688 85.082031 142.554688 "/>
<path style=" stroke:none;fill-rule:nonzero;fill:rgb(23.921569%,23.921569%,23.921569%);fill-opacity:1;" d="M 126.242188 62.335938 L 123.152344 63.914062 C 117.636719 66.628906 111.015625 67.769531 103.289062 67.332031 C 97.40625 66.980469 92.21875 65.796875 87.730469 63.78125 L 90.160156 52.601562 C 94.058594 54.53125 98.582031 55.628906 103.730469 55.890625 C 109.835938 56.242188 115.097656 55.363281 119.511719 53.261719 L 122.160156 51.8125 C 122.675781 51.464844 123.1875 51.242188 123.703125 51.15625 L 126.242188 62.335938 M 130.65625 144.65625 C 135.730469 144.65625 140.035156 146.761719 143.566406 150.96875 C 147.171875 155.265625 148.972656 160.394531 148.972656 166.355469 L 148.972656 167.539062 C 148.753906 173.0625 146.949219 177.796875 143.566406 181.742188 C 140.035156 186.039062 135.730469 188.1875 130.65625 188.1875 C 125.652344 188.1875 121.351562 186.039062 117.746094 181.742188 C 114.363281 177.710938 112.597656 172.886719 112.449219 167.277344 L 112.449219 166.355469 C 112.449219 160.394531 114.214844 155.265625 117.746094 150.96875 C 121.351562 146.761719 125.652344 144.65625 130.65625 144.65625 M 63.566406 156.625 L 68.753906 157.152344 L 70.519531 157.152344 C 70.003906 159.605469 68.972656 161.796875 67.429688 163.726562 C 65.296875 166.355469 62.683594 167.671875 59.59375 167.671875 C 56.503906 167.671875 53.894531 166.355469 51.757812 163.726562 C 49.625 161.183594 48.558594 158.070312 48.558594 154.390625 C 48.558594 152.898438 48.742188 151.496094 49.109375 150.179688 L 50.765625 151.496094 L 55.179688 153.863281 L 55.179688 154.390625 C 55.179688 155.792969 55.585938 157.0625 56.394531 158.203125 C 57.277344 159.253906 58.34375 159.78125 59.59375 159.78125 C 60.84375 159.78125 61.875 159.253906 62.683594 158.203125 L 63.566406 156.625 M 130.65625 162.015625 C 129.699219 162.015625 128.855469 162.453125 128.117188 163.332031 L 127.898438 163.726562 L 127.566406 164.253906 C 127.199219 164.867188 127.015625 165.566406 127.015625 166.355469 L 127.125 167.410156 L 127.125 167.539062 L 127.675781 168.855469 L 128.117188 169.511719 C 128.855469 170.300781 129.699219 170.695312 130.65625 170.695312 C 131.6875 170.695312 132.570312 170.300781 133.304688 169.511719 L 133.746094 168.984375 L 134.1875 167.410156 L 134.296875 166.355469 L 133.855469 164.382812 L 133.304688 163.332031 C 132.570312 162.453125 131.6875 162.015625 130.65625 162.015625 "/>
<path style=" stroke:none;fill-rule:nonzero;fill:rgb(100%,89.411765%,48.235294%);fill-opacity:1;" d="M 34.546875 92.1875 L 32.558594 89.820312 L 74.492188 93.105469 L 73.9375 95.738281 L 34.546875 92.1875 M 92.257812 94.554688 L 121.386719 96.921875 L 120.726562 99.945312 L 101.746094 98.234375 L 99.097656 103.101562 L 95.785156 103.101562 L 98.988281 97.972656 L 92.917969 97.445312 L 92.257812 94.554688 M 127.234375 100.472656 L 127.898438 97.445312 L 132.199219 97.710938 L 132.3125 100.867188 L 127.234375 100.472656 M 81.550781 125.195312 L 86.847656 125.0625 L 73.71875 148.339844 L 72.0625 142.683594 L 71.289062 141.371094 L 81.550781 125.195312 M 80.890625 93.632812 L 85.636719 94.027344 L 86.1875 96.921875 L 80.339844 96.394531 L 80.890625 93.632812 "/>
<path style=" stroke:none;fill-rule:nonzero;fill:rgb(59.607846%,60.392159%,65.490198%);fill-opacity:1;" d="M 132.3125 100.867188 L 132.199219 97.710938 L 131.316406 85.085938 L 135.402344 103.101562 L 132.421875 103.101562 L 132.3125 100.867188 "/>
<path style=" stroke:none;fill-rule:nonzero;fill:rgb(98.039216%,86.274511%,40.392157%);fill-opacity:1;" d="M 85.082031 142.554688 C 86.261719 142.554688 87.21875 143.035156 87.953125 144 C 88.6875 144.875 89.054688 145.972656 89.054688 147.289062 C 89.054688 148.601562 88.6875 149.742188 87.953125 150.707031 L 87.730469 150.839844 C 86.996094 151.714844 86.113281 152.152344 85.082031 152.152344 C 84.054688 152.152344 83.132812 151.671875 82.324219 150.707031 L 82.105469 150.445312 C 81.441406 149.566406 81.109375 148.515625 81.109375 147.289062 L 81.222656 147.023438 C 81.222656 145.796875 81.589844 144.789062 82.324219 144 C 83.132812 143.035156 84.054688 142.554688 85.082031 142.554688 "/>
<path style=" stroke:none;fill-rule:nonzero;fill:rgb(10.980392%,10.980392%,10.980392%);fill-opacity:1;" d="M 44.257812 152.152344 L 49.109375 150.179688 C 48.742188 151.496094 48.558594 152.898438 48.558594 154.390625 C 48.558594 158.070312 49.625 161.183594 51.757812 163.726562 C 53.894531 166.355469 56.503906 167.671875 59.59375 167.671875 C 62.683594 167.671875 65.296875 166.355469 67.429688 163.726562 C 68.972656 161.796875 70.003906 159.605469 70.519531 157.152344 L 74.269531 161.492188 L 73.9375 161.753906 L 73.828125 161.886719 L 70.628906 167.410156 C 67.613281 171.089844 63.933594 172.929688 59.59375 172.929688 C 55.253906 172.929688 51.613281 171.132812 48.667969 167.539062 L 48.558594 167.410156 C 45.617188 163.8125 44.144531 159.472656 44.144531 154.390625 L 44.257812 152.152344 M 152.945312 172.011719 L 152.945312 172.140625 C 152.0625 177.140625 150.003906 181.566406 146.765625 185.425781 L 146.65625 185.554688 C 142.242188 190.816406 136.910156 193.445312 130.65625 193.445312 C 124.402344 193.445312 119.070312 190.816406 114.65625 185.554688 C 111.492188 181.785156 109.46875 177.445312 108.585938 172.535156 L 108.476562 171.878906 L 108.144531 171.878906 L 108.144531 166.488281 L 112.449219 167.277344 C 112.597656 172.886719 114.363281 177.710938 117.746094 181.742188 C 121.351562 186.039062 125.652344 188.1875 130.65625 188.1875 C 135.730469 188.1875 140.035156 186.039062 143.566406 181.742188 C 146.949219 177.796875 148.753906 173.0625 148.972656 167.539062 L 153.496094 166.75 L 152.945312 172.011719 "/>
<path style=" stroke:none;fill-rule:nonzero;fill:rgb(95.686275%,95.686275%,95.686275%);fill-opacity:1;" d="M 55.179688 153.863281 L 59.59375 155.441406 L 63.566406 156.625 L 62.683594 158.203125 C 61.875 159.253906 60.84375 159.78125 59.59375 159.78125 C 58.34375 159.78125 57.277344 159.253906 56.394531 158.203125 C 55.585938 157.0625 55.179688 155.792969 55.179688 154.390625 L 55.179688 153.863281 M 130.65625 162.015625 C 131.6875 162.015625 132.570312 162.453125 133.304688 163.332031 L 133.855469 164.382812 L 134.296875 166.355469 L 134.1875 167.410156 L 133.746094 168.984375 L 133.304688 169.511719 C 132.570312 170.300781 131.6875 170.695312 130.65625 170.695312 C 129.699219 170.695312 128.855469 170.300781 128.117188 169.511719 L 127.675781 168.855469 L 127.125 167.539062 L 127.125 167.410156 L 127.015625 166.355469 C 127.015625 165.566406 127.199219 164.867188 127.566406 164.253906 L 127.898438 163.726562 L 128.117188 163.332031 C 128.855469 162.453125 129.699219 162.015625 130.65625 162.015625 "/>
<path style=" stroke:none;fill-rule:nonzero;fill:rgb(94.509804%,80.000001%,21.176471%);fill-opacity:1;" d="M 172.476562 91.132812 L 172.808594 91.003906 L 173.359375 91.132812 L 174.132812 91.398438 L 174.132812 91.660156 L 174.90625 91.660156 L 178.546875 93.105469 L 178.546875 127.691406 L 174.90625 129.140625 L 174.132812 129.402344 L 174.132812 129.269531 L 173.359375 129.535156 L 172.808594 129.535156 C 173.835938 121.207031 174.132812 112.875 173.691406 104.546875 L 172.476562 91.132812 M 187.703125 100.734375 C 189.691406 103.714844 190.683594 106.914062 190.683594 110.335938 C 190.683594 113.839844 189.691406 117.085938 187.703125 120.066406 L 187.703125 100.734375 "/>
<path style=" stroke:none;fill-rule:nonzero;fill:rgb(87.450981%,88.235295%,93.333334%);fill-opacity:1;" d="M 180.640625 91.398438 C 180.714844 90.609375 180.972656 89.949219 181.414062 89.425781 C 182.003906 88.8125 182.628906 88.503906 183.289062 88.503906 C 184.027344 88.417969 184.652344 88.679688 185.167969 89.292969 L 185.9375 91.398438 L 185.9375 110.730469 L 180.640625 110.730469 L 180.640625 91.398438 "/>
</g>
</svg>
